<svg xmlns="http://www.w3.org/2000/svg" viewBox="0 0 120 120" fill="none">
  <circle cx="60" cy="60" r="48" fill="#0a84ff" fill-opacity="0.08"/>
  <path d="M36,68 C36,48 54,36 60,28 C66,36 84,48 84,68 C84,82 72,90 60,90 C48,90 36,82 36,68 Z" fill="none" stroke="#0a84ff" stroke-width="2.5" stroke-linejoin="round"/>
  <path d="M48,62 C48,54 54,48 60,44 C66,48 72,54 72,62 C72,70 66,76 60,76 C54,76 48,70 48,62 Z" fill="none" stroke="#0a84ff" stroke-width="2" stroke-linejoin="round"/>
  <line x1="56" y1="68" x2="52" y2="72" stroke="#0a84ff" stroke-width="2" stroke-linecap="round"/>
  <line x1="64" y1="68" x2="68" y2="72" stroke="#0a84ff" stroke-width="2" stroke-linecap="round"/>
  <path d="M60,36 L60,28" stroke="#0a84ff" stroke-width="1.5" stroke-linecap="round" opacity="0.3"/>
  <path d="M44,44 L38,38" stroke="#0a84ff" stroke-width="1.5" stroke-linecap="round" opacity="0.2"/>
  <path d="M76,44 L82,38" stroke="#0a84ff" stroke-width="1.5" stroke-linecap="round" opacity="0.2"/>
</svg>
